<?xml version="1.0" encoding="UTF-8" standalone="no"?>
<svg
   version="1.0"
   width="4267.000000pt"
   height="4267.000000pt"
   viewBox="0 0 4267.000000 4267.000000"
   preserveAspectRatio="xMidYMid meet"
   id="svg4"
   sodipodi:docname="logo-4.svg"
   inkscape:version="1.3 (0e150ed6c4, 2023-07-21)"
   xmlns:inkscape="http://www.inkscape.org/namespaces/inkscape"
   xmlns:sodipodi="http://sodipodi.sourceforge.net/DTD/sodipodi-0.dtd"
   xmlns="http://www.w3.org/2000/svg"
   xmlns:svg="http://www.w3.org/2000/svg">
  <defs
     id="defs4" />
  <sodipodi:namedview
     id="namedview4"
     pagecolor="#ffffff"
     bordercolor="#000000"
     borderopacity="0.25"
     inkscape:showpageshadow="2"
     inkscape:pageopacity="0.0"
     inkscape:pagecheckerboard="0"
     inkscape:deskcolor="#d1d1d1"
     inkscape:document-units="pt"
     inkscape:zoom="0.029611236"
     inkscape:cx="11043.105"
     inkscape:cy="-3174.4707"
     inkscape:window-width="1350"
     inkscape:window-height="1152"
     inkscape:window-x="2073"
     inkscape:window-y="20"
     inkscape:window-maximized="0"
     inkscape:current-layer="svg4" />
  <g
     transform="matrix(0.27695283,0,0,-0.27695283,-3896.1351,7635.256)"
     fill="#000000"
     stroke="none"
     id="g4">
    <path
       d="m 14574.887,24884.736 c 0,-10.222 12.08,-51.11 27.878,-91.069 64.119,-166.34 2532.264,-5076.609 3087.968,-6142.483 89.21,-171.915 93.856,-179.349 109.654,-162.622 18.585,19.514 89.21,144.966 161.693,291.791 205.369,408.879 1266.597,2352.915 1856.684,3400.203 737.842,1309.343 996.179,1764.686 1253.587,2206.09 268.559,460.919 281.569,485.08 261.125,493.443 -21.373,8.364 -674.651,22.303 -1059.369,23.232 h -300.155 l -19.514,-39.029 c -11.151,-22.303 -103.149,-185.855 -203.511,-365.204 -495.301,-879.091 -1371.604,-2480.225 -1681.981,-3071.241 -156.117,-298.297 -235.105,-427.465 -260.196,-427.465 -13.939,0 -82.705,116.159 -192.359,326.174 -107.795,205.369 -840.99,1679.193 -1459.885,2935.568 l -314.093,636.551 -633.763,2.787 c -632.834,1.859 -633.763,1.859 -633.763,-16.726 z"
       id="path1"
       style="stroke-width:0.929271" />
    <path
       d="m 21820,24394 c -382,-600 -480,-757 -480,-771 0,-7 7,-13 15,-13 9,0 57,-4 108,-10 51,-5 227,-17 392,-25 501,-26 724,-58 985,-144 304,-100 553,-261 810,-520 208,-210 439,-555 1310,-1951 811,-1301 1077,-1720 1089,-1720 11,0 126,156 218,295 44,66 209,328 367,583 477,768 984,1573 1005,1595 5,5 11,-400 15,-900 3,-499 9,-1242 12,-1650 l 7,-743 h 643 644 v 3210 3210 h -385 -386 l -116,-177 c -64,-98 -270,-414 -458,-703 -188,-289 -458,-703 -600,-920 -436,-668 -778,-1211 -867,-1380 -50,-93 -63,-90 -150,30 -38,52 -152,226 -255,385 -507,787 -601,933 -797,1225 -289,431 -403,585 -526,713 -326,339 -818,614 -1320,737 -157,38 -318,57 -585,70 -121,5 -263,12 -315,15 l -95,6 z"
       id="path2" />
    <path
       d="m 21670,21629 v -1052 l 133,8 c 153,8 243,23 351,59 268,90 515,297 632,528 81,160 124,319 124,455 0,270 -101,493 -325,719 -202,203 -333,258 -749,314 -82,11 -153,20 -157,20 -5,0 -9,-466 -9,-1051 z"
       id="path3" />
    <path
       d="m 23761,21333 c -5,-21 -19,-87 -31,-148 -52,-270 -182,-537 -388,-800 -129,-164 -352,-365 -523,-470 -231,-142 -707,-285 -952,-285 -167,0 -189,-23 -482,-500 -307,-498 -415,-684 -402,-691 43,-23 820,-16 1287,11 527,32 793,96 1170,285 239,120 422,256 646,479 214,214 310,343 438,588 l 77,146 -57,113 c -93,186 -586,1038 -744,1287 -20,31 -28,28 -39,-15 z"
       id="path4" />
  </g>
  <text
     xml:space="preserve"
     style="font-size:1126.7px;fill:#000000;stroke:#000000;stroke-width:35.4864"
     x="1174.0388"
     y="3571.2766"
     id="text4"><tspan
       sodipodi:role="line"
       id="tspan4"
       style="stroke-width:35.4864"
       x="1174.0388"
       y="3571.2766">TECH</tspan></text>
</svg>
